<svg width="81" height="27" viewBox="0 0 81 27" fill="none" xmlns="http://www.w3.org/2000/svg">
    <path d="M6.31162 6.38438C6.78427 6.61284 7.1778 6.97349 7.44283 7.4211C7.72533 7.89392 7.86988 8.43417 7.86059 8.98251C7.86471 9.38698 7.77948 9.7875 7.61081 10.1564C7.44214 10.5253 7.19404 10.8538 6.88365 11.1192C6.23283 11.7014 5.37856 12.0139 4.49911 11.9915H0V1.23237H4.40913C5.24109 1.20308 6.05291 1.48808 6.67797 2.02888C6.96686 2.27178 7.1974 2.57464 7.35298 2.91569C7.50858 3.25672 7.58535 3.62745 7.57779 4.00118C7.57727 4.47536 7.45807 4.94214 7.23072 5.3603C7.02297 5.77635 6.70559 6.12999 6.31162 6.38438ZM5.78457 4.26036C5.79095 4.07216 5.75575 3.88485 5.68142 3.71132C5.60707 3.5378 5.49534 3.38219 5.35395 3.25524C5.06447 2.99592 4.68491 2.85565 4.29344 2.86331H1.76751V5.6574H4.29344C4.49137 5.66557 4.68895 5.63452 4.87445 5.56611C5.05994 5.4977 5.22956 5.39331 5.37323 5.25916C5.50898 5.1302 5.61573 4.97469 5.68658 4.80265C5.75744 4.63062 5.79083 4.44587 5.78457 4.26036ZM4.38985 10.3037C4.60651 10.3115 4.8226 10.277 5.0256 10.2022C5.2286 10.1273 5.41448 10.0135 5.57248 9.86751C5.72199 9.72802 5.83992 9.55909 5.91856 9.37173C5.99719 9.18438 6.03476 8.98282 6.02882 8.78022C6.03476 8.57762 5.99719 8.37605 5.91856 8.1887C5.83992 8.00134 5.72199 7.83241 5.57248 7.69293C5.41448 7.5469 5.2286 7.43316 5.0256 7.35829C4.8226 7.28341 4.60651 7.2489 4.38985 7.25674H1.76751V10.3037H4.38985Z" fill="white"/>
    <path d="M17.9194 7.8575C17.9196 8.04758 17.9089 8.23753 17.8873 8.42643H11.0486C11.1249 9.03948 11.4267 9.60388 11.897 10.0131C12.3815 10.4087 12.9967 10.6156 13.626 10.5947C13.9446 10.5957 14.2615 10.5467 14.5643 10.4493C14.8434 10.3537 15.1042 10.2127 15.3356 10.0321C15.5597 9.85852 15.7475 9.64383 15.8884 9.39993H17.7201C17.4263 10.2334 16.8721 10.9542 16.1369 11.4594C15.4016 11.9646 14.5227 12.2284 13.626 12.213C13.0478 12.2247 12.4734 12.1184 11.9391 11.9008C11.4047 11.6832 10.9221 11.359 10.5216 10.9487C10.1126 10.5404 9.79188 10.0549 9.5787 9.52151C9.36551 8.98809 9.26428 8.41775 9.2811 7.84485C9.26428 7.27194 9.36551 6.70161 9.5787 6.1682C9.79188 5.63477 10.1126 5.1493 10.5216 4.74101C10.9221 4.3307 11.4047 4.00652 11.9391 3.78891C12.4734 3.57131 13.0478 3.465 13.626 3.4767C14.4169 3.46288 15.1959 3.66649 15.8755 4.06461C16.5176 4.44895 17.0419 4.99729 17.3923 5.65129C17.7517 6.33217 17.933 7.09044 17.9194 7.8575ZM13.626 5.03179C13.0286 5.01665 12.4445 5.20665 11.9741 5.56912C11.5134 5.9448 11.198 6.46481 11.0807 7.04202H16.184C16.0923 6.64999 15.9171 6.28157 15.6698 5.96105C15.436 5.66334 15.1315 5.42671 14.7829 5.27201C14.4205 5.1074 14.0251 5.02529 13.626 5.03179Z" fill="white"/>
    <path d="M26.6734 3.69157H27.811V10.8981C27.8336 11.6881 27.6593 12.4715 27.3032 13.1801C26.9814 13.8078 26.4724 14.3239 25.8442 14.6593C25.1504 15.014 24.3764 15.1902 23.5946 15.1714C22.6324 15.2023 21.685 14.9323 20.8887 14.4001C20.1585 13.8782 19.6521 13.1075 19.4683 12.2382H21.2101C21.3599 12.6894 21.6796 13.0672 22.1036 13.2939C22.552 13.544 23.0599 13.6726 23.5754 13.6669C23.9168 13.6878 24.2588 13.6364 24.5783 13.5161C24.8977 13.3959 25.1872 13.2098 25.4273 12.9701C25.6674 12.7303 25.8523 12.4428 25.9697 12.1268C26.087 11.8108 26.1342 11.4737 26.1078 11.1383V10.7653C25.3289 11.417 24.3343 11.7655 23.3118 11.7451C22.7592 11.7512 22.2108 11.6479 21.6994 11.4415C21.188 11.2351 20.724 10.9297 20.3349 10.5435C19.9458 10.1573 19.6396 9.69811 19.4344 9.19326C19.2293 8.68841 19.1293 8.14815 19.1405 7.60458C19.1295 7.05973 19.231 6.51836 19.4387 6.01314C19.6464 5.50792 19.956 5.04934 20.3489 4.66509C20.7504 4.27898 21.2254 3.97472 21.7468 3.76979C22.2682 3.56485 22.8256 3.46329 23.3871 3.47092C23.9485 3.47855 24.5029 3.59525 25.0183 3.81428C25.5338 4.03333 26.0001 4.3504 26.3906 4.74726L26.6734 3.69157ZM23.5176 10.1648C23.8695 10.1667 24.2185 10.1023 24.5459 9.97513C24.8535 9.85323 25.1348 9.6752 25.375 9.45044C25.6083 9.219 25.7918 8.94385 25.915 8.64129C26.0443 8.31934 26.1097 7.97601 26.1078 7.62985C26.101 7.12456 25.944 6.63226 25.6559 6.21382C25.3678 5.79539 24.9613 5.46915 24.4867 5.27546C24.0122 5.08176 23.4904 5.0291 22.9856 5.12397C22.481 5.21884 22.0157 5.45709 21.6472 5.80928C21.4071 6.04395 21.2179 6.324 21.0908 6.63254C20.9639 6.9411 20.9016 7.27174 20.908 7.60458C20.8979 7.94071 20.9582 8.27531 21.0854 8.58746C21.2126 8.89962 21.4038 9.18263 21.6472 9.41884C21.8916 9.66083 22.1834 9.85167 22.5048 9.97986C22.8263 10.1081 23.1708 10.171 23.5176 10.1648Z" fill="white"/>
    <path d="M30.2791 11.9915V0.71402H32.0144V11.9915H30.2791Z" fill="white"/>
    <path d="M41.5461 3.69156H42.8894V11.9916H41.4817L41.3083 10.9802C40.913 11.3783 40.4383 11.6916 39.914 11.9004C39.3898 12.1094 38.8272 12.2092 38.2617 12.1939C37.6776 12.2071 37.097 12.1016 36.5563 11.884C36.0154 11.6665 35.526 11.3416 35.1188 10.9297C34.6999 10.525 34.3699 10.0403 34.1488 9.50541C33.9277 8.9705 33.8203 8.39674 33.8333 7.81949C33.8209 7.24563 33.9272 6.67528 34.1457 6.14306C34.3642 5.61084 34.6906 5.12788 35.1047 4.72349C35.5189 4.3191 36.0123 4.00173 36.555 3.79064C37.0977 3.57957 37.6783 3.47918 38.2617 3.49559C38.8333 3.47905 39.4021 3.57952 39.9321 3.79064C40.462 4.00176 40.9416 4.3189 41.3403 4.72196L41.5461 3.69156ZM36.4043 9.78547C36.6638 10.0415 36.9739 10.2426 37.3155 10.3763C37.657 10.5101 38.0227 10.5736 38.3903 10.563C38.755 10.5748 39.1182 10.5117 39.4568 10.3778C39.7955 10.244 40.102 10.0422 40.3571 9.78547C40.6149 9.5303 40.8169 9.22592 40.9506 8.89108C41.0844 8.55624 41.1471 8.198 41.1348 7.83845C41.1478 7.47934 41.0862 7.12139 40.9536 6.78657C40.8209 6.45175 40.6201 6.14713 40.3635 5.89144C40.1062 5.63624 39.7982 5.43604 39.4586 5.30333C39.1191 5.17062 38.7554 5.10829 38.3903 5.12021C37.8956 5.11423 37.4079 5.23632 36.9763 5.47422C36.5651 5.70815 36.2254 6.04659 35.9929 6.45405C35.753 6.87906 35.631 7.35871 35.6393 7.84477C35.6259 8.20295 35.6875 8.56003 35.8202 8.89386C35.9528 9.2277 36.1538 9.53117 36.4106 9.78547H36.4043Z" fill="white"/>
    <path d="M49.4067 3.64724H50.1329V5.25922H49.246C47.8149 5.25922 47.0971 6.02834 47.0928 7.56657V11.9916H45.3574V3.69149H46.5272L46.8229 4.82937C47.1234 4.44051 47.5157 4.12961 47.9659 3.92362C48.4162 3.71762 48.9107 3.62276 49.4067 3.64724Z" fill="white"/>
    <path d="M51.4827 2.40193V0.650879H53.2759V2.40193H51.4827ZM51.5148 11.9916V3.69151H53.2502V11.9916H51.5148Z" fill="white"/>
    <path d="M62.7819 3.69156H64.1253V11.9917H62.7177L62.5442 10.9802C62.1489 11.3783 61.6742 11.6916 61.1499 11.9004C60.6257 12.1094 60.063 12.2092 59.4976 12.1939C58.9126 12.2065 58.3313 12.1007 57.7895 11.8832C57.2478 11.6658 56.7572 11.3412 56.3482 10.9297C55.9306 10.5241 55.6013 10.0393 55.3804 9.50457C55.1593 8.96988 55.0512 8.39656 55.0628 7.8195C55.0502 7.24509 55.1568 6.6742 55.3757 6.14155C55.5947 5.6089 55.9215 5.12564 56.3364 4.72116C56.7512 4.31668 57.2454 3.99944 57.7889 3.78875C58.3323 3.57806 58.9136 3.47832 59.4976 3.4956C60.0691 3.47907 60.638 3.57954 61.168 3.79065C61.6979 4.00176 62.1775 4.31891 62.5763 4.72197L62.7819 3.69156ZM57.6401 9.78547C57.8997 10.0415 58.2098 10.2426 58.5513 10.3764C58.8929 10.5101 59.2587 10.5736 59.6261 10.563C59.9908 10.5748 60.3542 10.5117 60.6927 10.3779C61.0313 10.244 61.3379 10.0423 61.5929 9.78547C61.8449 9.52734 62.0413 9.22187 62.1706 8.88732C62.2998 8.55278 62.3591 8.19605 62.3449 7.83846C62.3565 7.47953 62.2942 7.12199 62.1616 6.78738C62.0292 6.45278 61.8291 6.14801 61.5736 5.89144C61.3161 5.63657 61.0081 5.43655 60.6686 5.30387C60.3291 5.1712 59.9655 5.10868 59.6004 5.12022C59.1037 5.11432 58.6139 5.23636 58.18 5.47423C57.7706 5.70832 57.433 6.04685 57.203 6.45405C56.9612 6.87857 56.8371 7.35818 56.8431 7.84478C56.8339 8.20525 56.9005 8.5637 57.0387 8.89766C57.1769 9.23162 57.3839 9.53388 57.6466 9.78547H57.6401Z" fill="white"/>
    <path d="M71.0603 3.5081C71.4977 3.48934 71.934 3.56638 72.3374 3.73364C72.7409 3.9009 73.1015 4.15422 73.3933 4.47529C73.9948 5.18134 74.3044 6.08383 74.2611 7.00389V11.9978H72.5257V7.33893C72.5685 6.72761 72.3959 6.12044 72.0372 5.61948C71.8585 5.4185 71.6351 5.26086 71.3842 5.15888C71.1333 5.05689 70.8619 5.01333 70.5911 5.03158C70.2837 5.02421 69.9785 5.08387 69.6973 5.20628C69.4162 5.3287 69.166 5.51083 68.9649 5.73959C68.5258 6.24297 68.2961 6.89102 68.3222 7.55386V11.9789H66.5933V3.69143H67.7952L68.1295 4.84826C68.467 4.4187 68.9091 4.07959 69.4148 3.86211C69.9302 3.62631 70.492 3.50543 71.0603 3.5081Z" fill="white"/>
    <path d="M6.31162 17.6493H1.8125V20.69H5.9067V22.3019H1.79965V26.727H0V15.9805H6.31162V17.6493Z" fill="white"/>
    <path d="M15.0334 18.4458H16.3767V26.7459H14.9692L14.7828 25.7281C14.3887 26.1282 13.9145 26.4433 13.39 26.6534C12.8655 26.8634 12.3023 26.9638 11.7362 26.9482C11.1511 26.9618 10.5693 26.8565 10.0275 26.639C9.48555 26.4215 8.99511 26.0963 8.5868 25.6839C8.16832 25.279 7.83842 24.7942 7.61737 24.2594C7.3963 23.7246 7.28877 23.1509 7.30134 22.5737C7.28455 21.9999 7.38685 21.4289 7.602 20.8953C7.81714 20.3619 8.14062 19.8771 8.55267 19.4706C8.96471 19.0642 9.45667 18.7446 9.99851 18.5315C10.5403 18.3183 11.1207 18.216 11.704 18.2309C12.2786 18.218 12.8495 18.3239 13.3798 18.5417C13.9102 18.7595 14.388 19.0843 14.7828 19.4951L15.0334 18.4458ZM9.89155 24.5397C10.1529 24.7942 10.4646 24.9935 10.8073 25.125C11.1499 25.2566 11.5164 25.3176 11.884 25.3045C12.2487 25.3163 12.6121 25.2533 12.9506 25.1195C13.2892 24.9855 13.5958 24.7838 13.8508 24.527C14.1058 24.2688 14.3056 23.9629 14.438 23.6274C14.5705 23.2918 14.6331 22.9336 14.6221 22.5737C14.6355 22.2145 14.5737 21.8565 14.4402 21.5219C14.3068 21.1873 14.1048 20.8834 13.8466 20.6289C13.5886 20.3745 13.28 20.1751 12.9401 20.0431C12.6002 19.9111 12.2364 19.8494 11.8711 19.8618C11.3766 19.8567 10.8891 19.9787 10.4572 20.2158C10.0434 20.4458 9.70124 20.7824 9.46735 21.1893C9.22686 21.6144 9.10284 22.0936 9.10742 22.58C9.095 22.9425 9.1588 23.3037 9.29484 23.6409C9.43087 23.9781 9.63619 24.2842 9.89798 24.5397H9.89155Z" fill="white"/>
    <path d="M23.3569 18.2436C23.942 18.23 24.5237 18.3352 25.0656 18.5528C25.6075 18.7704 26.0979 19.0955 26.5063 19.5079C26.916 19.917 27.2371 20.4035 27.4504 20.9381C27.6636 21.4726 27.7644 22.0441 27.7467 22.6181C27.7649 23.1931 27.6643 23.7656 27.4512 24.3014C27.2379 24.8371 26.9164 25.3246 26.5063 25.7346C26.0979 26.147 25.6075 26.4722 25.0656 26.6898C24.5237 26.9073 23.942 27.0125 23.3569 26.9989C22.8076 27.0108 22.2614 26.9157 21.7497 26.7194C21.2379 26.523 20.7706 26.2292 20.3745 25.8547L20.1561 26.7966H18.8706V15.4622H20.5674V19.2172C21.345 18.5682 22.3373 18.2219 23.3569 18.2436ZM21.2423 24.5651C21.5643 24.8899 21.9631 25.131 22.4032 25.267C22.8431 25.403 23.3106 25.4295 23.7636 25.3443C24.2166 25.2589 24.641 25.0645 24.9988 24.7784C25.3568 24.4923 25.6369 24.1233 25.8142 23.7046C25.9916 23.2859 26.0607 22.8304 26.0151 22.379C25.9696 21.9276 25.8111 21.4943 25.5536 21.1179C25.2961 20.7416 24.9477 20.4339 24.5397 20.2225C24.1317 20.011 23.6767 19.9023 23.2155 19.9061C22.7208 19.9011 22.2335 20.0231 21.8014 20.2602C21.3877 20.4902 21.0455 20.8268 20.8117 21.2337C20.5712 21.6587 20.4471 22.138 20.4517 22.6244C20.4471 22.9785 20.5147 23.3298 20.6504 23.6577C20.7862 23.9856 20.9875 24.2834 21.2423 24.5335V24.5651Z" fill="white"/>
    <path d="M33.6406 18.4017H34.3925V20.0137H33.4799C32.0444 20.0137 31.3268 20.7828 31.3268 22.321V26.7461H29.5657V18.446H30.7418L31.0374 19.5839C31.3383 19.1905 31.7334 18.8767 32.1877 18.6704C32.6419 18.4642 33.1411 18.3718 33.6406 18.4017Z" fill="white"/>
    <path d="M35.7166 17.1563V15.4053H37.5162V17.1563H35.7166ZM35.7166 26.746V18.4459H37.4519V26.746H35.7166Z" fill="white"/>
    <path d="M43.7508 26.9482C43.1666 26.9567 42.5866 26.8497 42.0453 26.6334C41.504 26.417 41.0125 26.0959 40.6 25.6889C40.1874 25.282 39.8623 24.7977 39.644 24.2646C39.4256 23.7317 39.3184 23.1609 39.3288 22.5863C39.3371 21.777 39.5728 20.9856 40.01 20.2999C40.4472 19.6141 41.0687 19.0607 41.8059 18.7008C42.5429 18.3409 43.367 18.1886 44.1867 18.2607C45.0064 18.3329 45.7898 18.6267 46.4503 19.1095C47.2057 19.6748 47.732 20.486 47.935 21.398H46.2189C46.0107 20.9393 45.6684 20.5519 45.2355 20.2854C44.7908 20.0113 44.2755 19.8686 43.7508 19.8745C43.2804 19.8712 42.8177 19.9928 42.4117 20.2265C42.0056 20.46 41.6711 20.797 41.4434 21.2019C41.2078 21.6287 41.0862 22.1071 41.0899 22.5927C41.0808 22.9498 41.1437 23.3051 41.275 23.6382C41.4062 23.9713 41.6033 24.2756 41.8547 24.5333C42.1001 24.7831 42.3949 24.9804 42.7211 25.1131C43.0473 25.2458 43.3978 25.311 43.7508 25.3046C44.2727 25.3123 44.785 25.167 45.2227 24.8874C45.6669 24.5996 46.0138 24.188 46.2189 23.7053H47.9671C47.7565 24.6361 47.2223 25.4655 46.4567 26.0505C45.6866 26.6469 44.7309 26.9639 43.7508 26.9482Z" fill="white"/>
    <path d="M52.4854 26.9482C51.5892 26.9918 50.7068 26.7182 49.9981 26.177C49.6903 25.9264 49.4435 25.6112 49.2755 25.2546C49.1076 24.8981 49.0229 24.5091 49.0275 24.1162H50.7307C50.7372 24.3081 50.7879 24.4961 50.8792 24.666C50.9706 24.8357 51.1001 24.9828 51.2578 25.0961C51.6398 25.3385 52.0891 25.4579 52.5433 25.4374C52.8266 25.4429 53.1089 25.4023 53.3789 25.3173C53.604 25.2456 53.8073 25.1196 53.9701 24.9506C54.1123 24.7868 54.1898 24.5781 54.1886 24.3627C54.1918 24.2196 54.1515 24.0787 54.0729 23.9582C54.0077 23.8452 53.9177 23.748 53.8095 23.6737C53.6672 23.5825 53.5109 23.5141 53.3467 23.4714C53.1779 23.416 53.0063 23.3695 52.8325 23.3324L52.2283 23.2248C51.9712 23.1869 51.7592 23.1489 51.5856 23.1174C51.4121 23.0858 51.2321 23.0415 50.9879 22.972C50.7861 22.9197 50.5901 22.8477 50.4029 22.757C50.2338 22.6685 50.0706 22.5693 49.9144 22.46C49.7503 22.3474 49.6086 22.2059 49.4967 22.0427C49.3896 21.8662 49.3053 21.6772 49.2461 21.4801C49.1795 21.2434 49.1471 20.9987 49.1496 20.7531C49.1397 20.4025 49.2156 20.0545 49.3711 19.7387C49.5266 19.423 49.757 19.1486 50.0431 18.9389C50.7307 18.4496 51.5669 18.2045 52.4148 18.2435C53.2781 18.1999 54.1287 18.4624 54.812 18.9831C55.0972 19.2129 55.3266 19.5024 55.4833 19.8305C55.6402 20.1586 55.7204 20.517 55.7184 20.8796H54.0729C54.0781 20.7052 54.0399 20.5322 53.9615 20.3757C53.883 20.2193 53.7668 20.084 53.623 19.9819C53.2666 19.7539 52.8457 19.6432 52.4212 19.6658C52.0204 19.6464 51.6225 19.7432 51.2771 19.944C51.15 20.0183 51.0448 20.1239 50.9715 20.2501C50.8983 20.3764 50.8596 20.5192 50.8593 20.6647C50.8562 20.7749 50.876 20.8845 50.9171 20.987C50.965 21.0859 51.038 21.1709 51.1293 21.2336C51.2194 21.2987 51.3139 21.3578 51.4121 21.4105C51.5391 21.4688 51.6729 21.5112 51.8105 21.537L52.2476 21.6318L52.7489 21.7077L53.3916 21.8277C53.5331 21.8277 53.7323 21.8973 53.9959 21.9669C54.2165 22.0127 54.4318 22.0805 54.6386 22.1692C54.8136 22.2606 54.9831 22.3619 55.1463 22.4726C55.3211 22.5842 55.47 22.7306 55.5834 22.9025C55.6937 23.0871 55.7801 23.2846 55.8405 23.4904C55.9057 23.7507 55.9316 24.0191 55.9176 24.2868C55.9298 24.6595 55.851 25.0297 55.6877 25.3664C55.5244 25.7029 55.2815 25.996 54.9792 26.2212C54.2565 26.736 53.3766 26.9926 52.4854 26.9482Z" fill="white"/>
    <path d="M62.1071 19.0464H60.4811V20.14H61.9657V20.7217H60.4811V22.3209H59.8384V18.4459H62.1071V19.0464Z" fill="white"/>
    <path d="M64.4016 19.3183H64.6715V19.8998H64.3501C63.8296 19.8998 63.5724 20.1717 63.5724 20.7279V22.3209H62.9297V19.3309H63.3475L63.4568 19.7418C63.5662 19.5997 63.7099 19.4865 63.8747 19.4126C64.0397 19.3387 64.2207 19.3062 64.4016 19.3183Z" fill="white"/>
    <path d="M67.9045 19.3308H68.3865V22.3208H67.8788L67.821 21.9542C67.5215 22.2381 67.1217 22.3967 66.7058 22.3967C66.2899 22.3967 65.8902 22.2381 65.5907 21.9542C65.2977 21.653 65.134 21.2522 65.134 20.8353C65.134 20.4184 65.2977 20.0175 65.5907 19.7164C65.7382 19.5701 65.9148 19.4553 66.1094 19.3792C66.304 19.3031 66.5125 19.2672 66.7219 19.2739C66.9274 19.2672 67.1321 19.3032 67.3225 19.3794C67.5129 19.4556 67.685 19.5705 67.8274 19.7164L67.9045 19.3308ZM66.0535 21.5117C66.1467 21.6036 66.258 21.6757 66.3808 21.7235C66.5036 21.7715 66.6349 21.794 66.7668 21.7898C66.9 21.796 67.033 21.7745 67.157 21.7265C67.2812 21.6786 67.3934 21.6054 67.4868 21.5117C67.5791 21.4195 67.6512 21.3097 67.6987 21.1889C67.7463 21.0683 67.7682 20.9393 67.7631 20.81C67.7657 20.6828 67.7426 20.5565 67.6952 20.4382C67.6477 20.32 67.5769 20.2122 67.4868 20.1209C67.3238 19.9749 67.1187 19.8824 66.8998 19.8563C66.6808 19.8302 66.4592 19.872 66.2655 19.9756C66.1145 20.0556 65.9897 20.1762 65.9056 20.3232C65.8204 20.4764 65.7762 20.6481 65.7771 20.8227C65.7742 20.9498 65.7971 21.0763 65.8445 21.1946C65.892 21.313 65.963 21.4207 66.0535 21.5117Z" fill="white"/>
    <path d="M71.1632 19.2677C71.3178 19.2627 71.4717 19.2912 71.6139 19.3514C71.756 19.4114 71.8831 19.5016 71.9858 19.6153C72.2012 19.8678 72.3135 20.19 72.3007 20.5193V22.321H71.658V20.6458C71.6756 20.4218 71.6143 20.1986 71.4844 20.0137C71.4201 19.9412 71.3397 19.8842 71.2495 19.8469C71.1592 19.8097 71.0615 19.7932 70.9639 19.7988C70.8537 19.7969 70.7442 19.8185 70.6433 19.8622C70.5423 19.9058 70.4522 19.9704 70.3789 20.0515C70.2265 20.2277 70.1443 20.4524 70.1476 20.6838V22.283H69.5049V19.331H69.9355L70.064 19.7482C70.1794 19.5956 70.332 19.4739 70.5076 19.3941C70.7117 19.2983 70.9373 19.2548 71.1632 19.2677Z" fill="white"/>
    <path d="M74.8139 22.3906C74.6041 22.394 74.3954 22.3557 74.2009 22.278C74.0062 22.2005 73.8295 22.085 73.6814 21.9386C73.5331 21.7923 73.4164 21.6181 73.3383 21.4263C73.2601 21.2346 73.2221 21.0293 73.2264 20.8228C73.2229 20.6163 73.2618 20.4112 73.3408 20.2198C73.4197 20.0283 73.5372 19.8546 73.6859 19.7088C73.8347 19.563 74.0119 19.4483 74.2069 19.3714C74.4017 19.2946 74.6105 19.2571 74.8204 19.2614C75.1703 19.2534 75.5125 19.3626 75.7909 19.5712C76.0616 19.7747 76.2506 20.0657 76.3244 20.393H75.6817C75.6051 20.2276 75.4797 20.0888 75.3217 19.9947C75.1628 19.8945 74.9769 19.8439 74.7883 19.8493C74.6187 19.8463 74.4517 19.8901 74.3063 19.9758C74.1604 20.0582 74.0403 20.1785 73.9592 20.3234C73.876 20.477 73.8339 20.6488 73.8371 20.8228C73.8302 21.0825 73.9271 21.3343 74.107 21.5245C74.1951 21.6143 74.3011 21.6853 74.4182 21.7332C74.5355 21.7811 74.6614 21.8047 74.7883 21.8026C74.9765 21.805 75.1616 21.7547 75.3217 21.6572C75.4822 21.552 75.6074 21.4025 75.6817 21.2274H76.3244C76.2462 21.5629 76.0534 21.8618 75.778 22.0744C75.5018 22.283 75.1623 22.3943 74.8139 22.3906Z" fill="white"/>
    <path d="M80.1164 20.8291C80.1164 20.886 80.1164 20.9554 80.1164 21.0377H77.6419C77.6648 21.2584 77.7729 21.462 77.944 21.6066C78.1237 21.7535 78.3534 21.8279 78.5867 21.8152C78.7001 21.8153 78.8128 21.7983 78.921 21.7647C79.023 21.7295 79.1184 21.6782 79.2037 21.6129C79.285 21.5484 79.3527 21.469 79.403 21.379H80.0457C79.9391 21.6805 79.739 21.9414 79.4736 22.125C79.2086 22.3022 78.8943 22.3949 78.5739 22.3905C78.3659 22.3969 78.1588 22.3603 77.9661 22.283C77.7735 22.2056 77.5995 22.0893 77.4555 21.9417C77.17 21.638 77.0115 21.2395 77.0115 20.8258C77.0115 20.4123 77.17 20.0138 77.4555 19.7102C77.7063 19.4686 78.031 19.3148 78.3793 19.2725C78.7278 19.2303 79.0807 19.3018 79.3837 19.4762C79.6167 19.6114 79.8062 19.8087 79.93 20.0451C80.0577 20.287 80.1218 20.5565 80.1164 20.8291ZM78.5674 19.8113C78.3531 19.8073 78.1442 19.8766 77.9761 20.0073C77.8052 20.1395 77.6887 20.3281 77.6483 20.5382H79.4865C79.4572 20.396 79.3957 20.2621 79.3065 20.1463C79.2207 20.0404 79.1105 19.9559 78.9852 19.8998C78.8544 19.8401 78.7116 19.8099 78.5674 19.8113Z" fill="white"/>
    <path d="M80.1165 25.1467H59.8384V25.6461H80.1165V25.1467Z" fill="white"/>
</svg>
